<svg width="849" height="616" viewBox="0 0 849 616" fill="none" xmlns="http://www.w3.org/2000/svg">
<path d="M459.041 114.575C458.832 138.416 457.085 162.22 453.812 185.836C453.698 186.666 453.573 187.495 453.458 188.324L230.182 187.077C229.526 186.253 228.881 185.42 228.256 184.576C226.171 181.784 224.218 178.913 222.424 175.943C213.804 161.635 209.857 144.883 213.812 133.325L213.883 133.145C214.736 130.614 216.082 128.277 217.841 126.267C226.858 116.117 245.089 117.809 261.633 126.002C246.794 109.759 234.978 89.2622 234.081 70.9669C233.2 53.1217 242.531 40.3737 252.652 29.54C252.984 29.1819 253.316 28.8337 253.648 28.4856C253.81 28.3065 253.98 28.1374 254.141 27.9583C262.037 19.7023 271.243 11.5636 284.568 12.5481C299.182 13.6298 315.384 25.8705 326.745 40.1342C338.105 54.3879 345.654 70.5803 353.306 86.3833C360.968 102.176 369.258 118.373 381.553 131.872C364.9 110.809 351.474 86.8431 346.514 63.535C341.554 40.2269 345.919 17.841 360.761 6.86371C365.266 3.63387 370.48 1.53014 375.966 0.72859C376.606 0.62218 377.256 0.535801 377.917 0.459471C391.656 -1.10374 408.06 3.64796 422.016 15.0061C437.387 27.5122 448.043 46.052 453.345 63.6519C458.647 81.2518 459.212 98.1953 459.041 114.575Z" fill="#F2F2F2"/>
<path d="M312.96 187.54L308.691 187.516C307.335 186.668 305.973 185.83 304.605 185.003C303.758 184.468 302.901 183.953 302.043 183.428C287.881 174.779 273.631 166.483 259.292 158.539C244.966 150.589 230.568 143.005 216.098 135.788C215.714 135.621 215.402 135.324 215.214 134.951C215.026 134.577 214.975 134.149 215.069 133.742C215.085 133.688 215.109 133.638 215.141 133.592C215.342 133.213 215.794 133.056 216.452 133.379C218.227 134.269 220.012 135.159 221.787 136.069C236.296 143.41 250.743 151.118 265.128 159.192C279.503 167.262 293.796 175.689 308.008 184.472C308.306 184.653 308.606 184.845 308.904 185.027C310.26 185.864 311.605 186.702 312.96 187.54Z" fill="white"/>
<path d="M368.01 187.847L365.37 187.832C364.774 186.999 364.189 186.166 363.593 185.332C349.603 165.714 335.616 146.095 321.632 126.477C298.731 94.3585 275.836 62.2401 252.949 30.1217C252.814 29.9488 252.713 29.7513 252.652 29.54C252.456 28.8289 252.979 28.4118 253.648 28.4856C253.931 28.5259 254.201 28.6259 254.442 28.779C254.682 28.9321 254.887 29.1347 255.043 29.3734C267.883 47.3854 280.719 65.3907 293.552 83.3894C316.334 115.347 339.112 147.302 361.888 179.253C363.336 181.281 364.785 183.319 366.234 185.347C366.829 186.18 367.424 187.014 368.01 187.847Z" fill="white"/>
<path d="M426.826 172.516C426.692 176.965 426.397 181.343 426.012 185.681C425.938 186.511 425.863 187.34 425.789 188.17L423.019 188.154C423.103 187.325 423.188 186.495 423.262 185.666C423.848 179.399 424.263 173.061 424.319 166.551C424.393 148.503 422.634 130.494 419.07 112.801C415.281 93.7508 409.841 75.0664 402.811 56.9595C395.433 37.8625 386.538 19.3869 376.21 1.71001C376.015 1.4219 375.929 1.07435 375.965 0.72864C376.08 -0.0607701 377.131 -0.294879 377.917 0.459521C378.072 0.607529 378.206 0.776577 378.314 0.961733C379.592 3.15891 380.846 5.36263 382.077 7.57289C392.024 25.3479 400.538 43.8877 407.538 63.016C414.205 81.1822 419.277 99.8948 422.695 118.942C425.897 136.612 427.281 154.563 426.826 172.516Z" fill="white"/>
<path d="M615.72 186.474H8.71973C6.40771 186.476 4.19098 187.395 2.55617 189.03C0.92135 190.665 0.00202823 192.882 0 195.194V606.514C0.00202823 608.826 0.92135 611.043 2.55617 612.677C4.19098 614.312 6.40771 615.232 8.71973 615.234H615.72C616.98 615.234 618.226 614.96 619.371 614.432C620.516 613.904 621.532 613.133 622.35 612.174C622.419 612.099 622.483 612.019 622.54 611.934C623.061 611.297 623.482 610.586 623.79 609.824C624.229 608.776 624.453 607.65 624.45 606.514V195.194C624.447 192.88 623.526 190.662 621.889 189.027C620.252 187.392 618.033 186.474 615.72 186.474V186.474ZM621.96 606.514C621.961 607.73 621.603 608.92 620.93 609.934C620.332 610.826 619.521 611.555 618.57 612.054C617.689 612.509 616.711 612.746 615.72 612.744H8.71973C7.06804 612.742 5.48458 612.085 4.31667 610.917C3.14875 609.749 2.49172 608.166 2.48972 606.514V195.194C2.49172 193.542 3.14875 191.959 4.31667 190.791C5.48458 189.623 7.06804 188.966 8.71973 188.964H615.72C617.373 188.964 618.959 189.62 620.129 190.788C621.299 191.956 621.957 193.541 621.96 195.194V606.514Z" fill="black"/>
<path d="M623.199 221.423H1.24268V223.916H623.199V221.423Z" fill="black"/>
<path d="M22.4316 212.648C26.5618 212.648 29.91 209.3 29.91 205.17C29.91 201.04 26.5618 197.692 22.4316 197.692C18.3013 197.692 14.9531 201.04 14.9531 205.17C14.9531 209.3 18.3013 212.648 22.4316 212.648Z" fill="black"/>
<path d="M43.9321 212.648C48.0623 212.648 51.4105 209.3 51.4105 205.17C51.4105 201.04 48.0623 197.692 43.9321 197.692C39.8018 197.692 36.4536 201.04 36.4536 205.17C36.4536 209.3 39.8018 212.648 43.9321 212.648Z" fill="black"/>
<path d="M65.4325 212.648C69.5628 212.648 72.911 209.3 72.911 205.17C72.911 201.04 69.5628 197.692 65.4325 197.692C61.3023 197.692 57.9541 201.04 57.9541 205.17C57.9541 209.3 61.3023 212.648 65.4325 212.648Z" fill="black"/>
<path d="M468.319 279.126H156.319C152.872 279.126 149.565 277.756 147.127 275.318C144.689 272.88 143.319 269.574 143.319 266.126C143.319 262.678 144.689 259.371 147.127 256.933C149.565 254.495 152.872 253.126 156.319 253.126H468.319C471.767 253.126 475.074 254.495 477.512 256.933C479.95 259.371 481.319 262.678 481.319 266.126C481.319 269.574 479.95 272.88 477.512 275.318C475.074 277.756 471.767 279.126 468.319 279.126V279.126ZM156.319 255.126C153.402 255.126 150.604 256.285 148.541 258.348C146.478 260.411 145.319 263.208 145.319 266.126C145.319 269.043 146.478 271.841 148.541 273.904C150.604 275.967 153.402 277.126 156.319 277.126H468.319C471.237 277.126 474.035 275.967 476.098 273.904C478.16 271.841 479.319 269.043 479.319 266.126C479.319 263.208 478.16 260.411 476.098 258.348C474.035 256.285 471.237 255.126 468.319 255.126H156.319Z" fill="black"/>
<path d="M182.225 431.744H62.2249C57.7177 431.739 53.3967 429.946 50.2096 426.759C47.0226 423.572 45.2299 419.251 45.2249 414.744V358.744C45.2299 354.237 47.0226 349.915 50.2096 346.728C53.3967 343.541 57.7177 341.749 62.2249 341.744H182.225C186.732 341.749 191.053 343.541 194.24 346.728C197.427 349.915 199.22 354.237 199.225 358.744V414.744C199.22 419.251 197.427 423.572 194.24 426.759C191.053 429.946 186.732 431.739 182.225 431.744V431.744Z" fill="#3AB5EF"/>
<path d="M372.225 431.744H252.225C247.718 431.739 243.397 429.946 240.21 426.759C237.023 423.572 235.23 419.251 235.225 414.744V358.744C235.23 354.237 237.023 349.915 240.21 346.728C243.397 343.541 247.718 341.749 252.225 341.744H372.225C376.732 341.749 381.053 343.541 384.24 346.728C387.427 349.915 389.22 354.237 389.225 358.744V414.744C389.22 419.251 387.427 423.572 384.24 426.759C381.053 429.946 376.732 431.739 372.225 431.744V431.744Z" fill="#3AB5EF"/>
<path d="M562.225 431.744H442.225C437.718 431.739 433.397 429.946 430.21 426.759C427.023 423.572 425.23 419.251 425.225 414.744V358.744C425.23 354.237 427.023 349.915 430.21 346.728C433.397 343.541 437.718 341.749 442.225 341.744H562.225C566.732 341.749 571.053 343.541 574.24 346.728C577.427 349.915 579.22 354.237 579.225 358.744V414.744C579.22 419.251 577.427 423.572 574.24 426.759C571.053 429.946 566.732 431.739 562.225 431.744V431.744Z" fill="#3AB5EF"/>
<path d="M182.225 549.744H62.2249C57.7177 549.739 53.3967 547.946 50.2096 544.759C47.0226 541.572 45.2299 537.251 45.2249 532.744V476.744C45.2299 472.237 47.0226 467.915 50.2096 464.728C53.3967 461.541 57.7177 459.749 62.2249 459.744H182.225C186.732 459.749 191.053 461.541 194.24 464.728C197.427 467.915 199.22 472.237 199.225 476.744V532.744C199.22 537.251 197.427 541.572 194.24 544.759C191.053 547.946 186.732 549.739 182.225 549.744V549.744Z" fill="#3AB5EF"/>
<path d="M372.225 549.744H252.225C247.718 549.739 243.397 547.946 240.21 544.759C237.023 541.572 235.23 537.251 235.225 532.744V476.744C235.23 472.237 237.023 467.915 240.21 464.728C243.397 461.541 247.718 459.749 252.225 459.744H372.225C376.732 459.749 381.053 461.541 384.24 464.728C387.427 467.915 389.22 472.237 389.225 476.744V532.744C389.22 537.251 387.427 541.572 384.24 544.759C381.053 547.946 376.732 549.739 372.225 549.744V549.744Z" fill="#3AB5EF"/>
<path d="M562.225 549.744H442.225C437.718 549.739 433.397 547.946 430.21 544.759C427.023 541.572 425.23 537.251 425.225 532.744V476.744C425.23 472.237 427.023 467.915 430.21 464.728C433.397 461.541 437.718 459.749 442.225 459.744H562.225C566.732 459.749 571.053 461.541 574.24 464.728C577.427 467.915 579.22 472.237 579.225 476.744V532.744C579.22 537.251 577.427 541.572 574.24 544.759C571.053 547.946 566.732 549.739 562.225 549.744V549.744Z" fill="#3AB5EF"/>
<path d="M697.115 281.744C715.34 281.744 730.115 266.969 730.115 248.744C730.115 230.518 715.34 215.744 697.115 215.744C678.889 215.744 664.115 230.518 664.115 248.744C664.115 266.969 678.889 281.744 697.115 281.744Z" fill="#2F2E41"/>
<path d="M614.443 420.413C613.712 419.023 613.294 417.489 613.22 415.921C613.145 414.352 613.415 412.786 614.012 411.333C614.608 409.88 615.515 408.575 616.67 407.511C617.825 406.447 619.199 405.649 620.696 405.173L662.512 316.714L681.64 330.127L634.521 412.862C635.154 415.429 634.823 418.139 633.591 420.479C632.358 422.818 630.311 424.624 627.836 425.555C625.361 426.486 622.631 426.477 620.162 425.529C617.694 424.581 615.659 422.761 614.443 420.413V420.413Z" fill="#FFB8B8"/>
<path d="M650.275 328.458C650.076 327.795 650.022 327.097 650.117 326.412C650.212 325.726 650.454 325.069 650.827 324.486L663.828 304.103C665.273 300.87 667.942 298.342 671.248 297.074C674.554 295.805 678.229 295.899 681.466 297.335C684.703 298.771 687.238 301.432 688.516 304.735C689.795 308.037 689.711 311.712 688.284 314.953L681.735 338.306C681.548 338.973 681.22 339.591 680.772 340.119C680.325 340.648 679.769 341.073 679.142 341.367C678.515 341.661 677.832 341.816 677.14 341.822C676.448 341.828 675.763 341.685 675.131 341.403L652.922 331.472C652.29 331.19 651.726 330.774 651.269 330.254C650.813 329.734 650.473 329.121 650.275 328.458V328.458Z" fill="#3AB5EF"/>
<path d="M755.49 429.183C753.96 428.827 752.527 428.141 751.291 427.172C750.055 426.203 749.047 424.974 748.337 423.573C747.627 422.172 747.233 420.633 747.183 419.063C747.133 417.494 747.427 415.932 748.045 414.488L708.443 325.016L731.098 319.31L762.902 409.053C765.258 410.252 767.093 412.275 768.057 414.736C769.022 417.198 769.051 419.928 768.137 422.41C767.224 424.891 765.431 426.951 763.101 428.199C760.77 429.448 758.062 429.797 755.49 429.183V429.183Z" fill="#FFB8B8"/>
<path d="M766.285 591.358L754.765 595.553L733.105 553.115L750.107 546.924L766.285 591.358Z" fill="#FFB8B8"/>
<path d="M745.339 595.257L767.556 587.168L772.649 601.157L736.443 614.339C735.774 612.502 735.474 610.551 735.559 608.598C735.644 606.645 736.113 604.728 736.939 602.956C737.765 601.184 738.932 599.592 740.373 598.271C741.814 596.95 743.502 595.926 745.339 595.257Z" fill="#2F2E41"/>
<path d="M734.836 564.515L690.949 487.713C690.525 486.969 690.307 486.127 690.316 485.272C690.325 484.416 690.562 483.578 691.001 482.845L710.764 449.907C711.232 449.126 711.913 448.494 712.727 448.084C713.54 447.674 714.453 447.503 715.36 447.591C716.267 447.679 717.13 448.023 717.849 448.582C718.569 449.141 719.115 449.892 719.424 450.749L756.788 554.217C757.199 555.343 757.174 556.583 756.717 557.691C756.26 558.8 755.405 559.697 754.32 560.207L741.08 566.478C740.442 566.78 739.743 566.937 739.037 566.937C738.185 566.938 737.349 566.715 736.611 566.289C735.874 565.864 735.262 565.252 734.836 564.515V564.515Z" fill="#2F2E41"/>
<path d="M694.111 284.8C707.676 284.8 718.672 273.804 718.672 260.239C718.672 246.674 707.676 235.678 694.111 235.678C680.546 235.678 669.55 246.674 669.55 260.239C669.55 273.804 680.546 284.8 694.111 284.8Z" fill="#FFB8B8"/>
<path d="M659.176 371.49C639.833 328.602 659.333 304.632 668.614 296.317C671.288 293.919 674.753 292.593 678.344 292.596H712.944C715.428 292.596 717.872 293.231 720.042 294.441C722.212 295.65 724.037 297.395 725.343 299.509C726.649 301.622 727.394 304.034 727.505 306.516C727.617 308.999 727.092 311.468 725.981 313.69L702.852 359.949L659.364 371.909L659.176 371.49Z" fill="#3AB5EF"/>
<path d="M709.793 341.051C709.161 340.768 708.598 340.353 708.141 339.832C707.684 339.312 707.346 338.699 707.147 338.036L700.223 314.873C698.724 311.666 698.556 307.996 699.758 304.666C700.96 301.336 703.433 298.618 706.635 297.108C709.836 295.597 713.506 295.418 716.84 296.609C720.174 297.799 722.9 300.263 724.421 303.46L737.812 323.682C738.194 324.26 738.447 324.912 738.554 325.596C738.661 326.28 738.62 326.979 738.432 327.645C738.245 328.312 737.916 328.93 737.468 329.458C737.021 329.985 736.464 330.411 735.837 330.704L713.804 341.018C713.177 341.311 712.494 341.466 711.802 341.472C711.11 341.478 710.424 341.334 709.793 341.051V341.051Z" fill="#3AB5EF"/>
<path d="M687.147 602.955L674.887 602.954L669.055 555.666L687.149 555.667L687.147 602.955Z" fill="#FFB8B8"/>
<path d="M666.13 599.451H689.774V614.338H651.243C651.243 612.383 651.628 610.447 652.376 608.641C653.124 606.835 654.221 605.194 655.603 603.812C656.986 602.429 658.627 601.333 660.433 600.585C662.239 599.836 664.175 599.451 666.13 599.451V599.451Z" fill="#2F2E41"/>
<path d="M681.952 584.903L662.324 582.638C661.688 582.565 661.074 582.366 660.516 582.052C659.959 581.739 659.469 581.318 659.076 580.813C658.683 580.309 658.394 579.731 658.227 579.114C658.059 578.497 658.017 577.852 658.101 577.218L675.619 445.318C675.68 444.859 675.655 444.392 675.546 443.942L657.938 371.297C657.772 370.627 657.753 369.929 657.883 369.251C658.013 368.573 658.289 367.932 658.692 367.371C661.422 363.607 670.778 354.834 698.606 354.668H698.637C699.563 354.668 700.471 354.935 701.25 355.436C702.03 355.937 702.649 356.652 703.034 357.495L706.746 365.661C707.022 366.267 707.455 366.789 707.999 367.173C713.108 370.79 737.861 391.091 723.327 435.662C709.042 479.469 690.739 564.517 687.215 581.121C686.991 582.2 686.401 583.168 685.545 583.863C684.689 584.558 683.62 584.937 682.518 584.935C682.329 584.935 682.14 584.924 681.952 584.903V584.903Z" fill="#2F2E41"/>
<path d="M719.919 244.79C714.306 248.659 707.644 250.717 700.828 250.69C703.259 252.376 706.028 253.515 708.942 254.028C699.879 255.972 690.512 256.025 681.427 254.183C679.408 253.859 677.46 253.19 675.668 252.204C674.775 251.706 673.997 251.025 673.384 250.205C672.772 249.386 672.338 248.447 672.113 247.45C671.509 244.001 674.196 240.868 676.989 238.757C681.264 235.573 686.194 233.38 691.421 232.335C696.648 231.291 702.042 231.421 707.213 232.717C710.589 233.59 713.972 235.064 716.165 237.776C718.358 240.487 719.007 244.667 716.918 247.459L719.919 244.79Z" fill="#2F2E41"/>
<path d="M703.52 227.705C700.714 226.771 697.827 225.791 695.604 223.842C693.381 221.892 691.969 218.703 692.969 215.92C693.932 213.239 696.865 211.672 699.706 211.461C702.548 211.25 705.344 212.13 708.057 212.999C706.83 211.144 705.563 207.55 704.453 203.758C701.92 195.106 712.473 187.205 721.464 187.857C721.729 187.877 721.985 187.904 722.233 187.94C731.299 189.263 736.002 192.721 742.334 199.343C750.255 207.627 754.397 218.804 757.171 229.925C759.946 241.045 761.574 252.489 765.476 263.266C769.378 274.043 775.959 284.402 786.022 289.888C791.534 292.793 797.738 294.126 803.957 293.743C810.175 293.36 816.169 291.274 821.282 287.715C821.978 292.447 821.55 297.278 820.03 301.814C818.511 306.35 815.945 310.464 812.538 313.823C809.132 317.181 804.982 319.69 800.425 321.145C795.868 322.601 791.033 322.962 786.31 322.199C773.318 320.1 762.911 309.636 757.352 297.708C751.793 285.779 750.275 272.427 748.88 259.341C747.486 246.254 746.073 232.907 740.695 220.895C738.519 216.034 735.314 211.086 729.588 210.311C728.093 210.067 726.559 210.322 725.224 211.038C723.888 211.754 722.826 212.889 722.201 214.269C719.684 220.363 728.298 225.524 726.09 231.331C725.612 232.455 724.822 233.418 723.813 234.107C722.804 234.796 721.619 235.181 720.398 235.218C716.235 235.492 712.814 233.105 709.592 230.802C703 226.089 703.52 227.705 703.52 227.705Z" fill="#2F2E41"/>
<path d="M847.284 615.234H617.284C617.019 615.234 616.764 615.129 616.577 614.941C616.389 614.753 616.284 614.499 616.284 614.234C616.284 613.969 616.389 613.714 616.577 613.527C616.764 613.339 617.019 613.234 617.284 613.234H847.284C847.549 613.234 847.803 613.339 847.991 613.527C848.179 613.714 848.284 613.969 848.284 614.234C848.284 614.499 848.179 614.753 847.991 614.941C847.803 615.129 847.549 615.234 847.284 615.234Z" fill="#3F3D56"/>
</svg>
